<?xml version="1.0" encoding="UTF-8" standalone="no"?>
<!-- Created with Inkscape (http://www.inkscape.org/) -->

<svg
  width="500"
  height="500"
  viewBox="0 0 499.99997 198.16257"
  xmlns='http://www.w3.org/2000/svg'
>
  <defs>
    <linearGradient id="gradient">
      <stop stopColor="#f7d276" offset="0" />
      <stop stopColor="#f456dc" offset="0.3" />
      <stop stopColor="#836fee" offset="0.7" />
      <stop stopColor="#3af2c3" offset="1" />
    </linearGradient>
  </defs>
  <path style= "fill: url(#gradient)"
    d="m 67.257486,150.95273 c -6.73916,0 -13.253831,3.42704 -17.052315,7.98732 -3.798484,4.56013 -5.593896,9.71099 -6.787741,14.83773 -2.387639,10.25349 -2.22931,21.18763 -2.22931,29.31382 0,20.72926 6.078525,44.87144 13.889147,67.64833 -1.303194,3.21388 -2.520156,6.52195 -3.882818,9.62605 -5.720769,13.03019 -11.781568,24.98891 -16.967529,34.18206 -1.525785,2.70396 -2.82768,4.62305 -4.233582,6.84702 C 26.515359,316.8559 22.592747,311.5445 18.8392,306.42057 a 10.427631,10.427631 0 0 0 -14.5719501,-2.25138 10.427631,10.427631 0 0 0 -2.251629,14.57564 c 7.285301,9.94486 14.7181481,20.62376 21.3744711,27.28004 a 10.428674,10.428674 0 0 0 14.74551,0 c 4.757605,-4.75761 8.687058,-11.36086 14.254591,-21.23062 4.168923,-7.39031 8.753613,-16.53813 13.320783,-26.26859 4.02083,9.57387 8.07121,18.58872 11.82221,25.90329 5.07946,9.90487 8.56978,16.53123 13.63445,21.59592 a 10.428674,10.428674 0 0 0 14.745514,0 c 2.77245,-2.77242 4.55838,-5.60669 7.0276,-9.567 2.46923,-3.96045 5.18986,-8.75381 7.91348,-13.98885 5.44731,-10.4702 10.87917,-22.49996 13.81171,-33.20049 7.00254,-25.55232 5.58441,-50.00967 5.58441,-75.74993 0,-15.64143 0.7511,-27.21478 3.84216,-32.62463 1.54501,-2.7048 3.29479,-4.45353 7.33789,-6.13805 4.04289,-1.6841 10.54598,-2.94536 20.10463,-2.94536 17.51536,0 34.81738,8.76201 43.52416,21.51847 8.56547,12.5498 11.02227,33.7631 4.49932,46.80887 -0.68266,1.36525 -1.65631,2.57897 -2.68343,3.77216 -2.3468,-2.69345 -4.86421,-5.24997 -7.80265,-7.45191 -10.15186,-7.60706 -23.47196,-10.18709 -36.11992,-8.7292 -6.32403,0.72968 -12.64567,2.58372 -18.03045,6.86882 -5.32852,4.24038 -9.11591,11.53527 -9.04661,19.25227 -0.0853,7.35521 3.73093,14.21315 8.72175,18.25553 5.03708,4.0797 10.92001,6.12692 16.9601,7.25275 12.08005,2.25158 25.14384,1.01644 35.92429,-4.37368 0.72545,-0.3615 1.53223,-0.7918 2.28094,-1.16629 3.7495,8.71258 7.257,18.88538 10.64484,29.09237 3.51668,10.59562 7.12858,20.97259 12.8115,29.71976 5.68262,8.74722 15.08723,16.4508 26.95138,16.4508 a 10.428674,10.428674 0 0 0 7.37469,-3.05621 c 4.75736,-4.75756 8.68706,-11.36081 14.25459,-21.23062 4.16917,-7.39071 8.74937,-16.54082 13.31693,-26.27219 4.02148,9.57557 8.07056,18.59133 11.82222,25.90693 5.07965,9.90488 8.57346,16.53119 13.63829,21.59588 a 10.428674,10.428674 0 0 0 17.40667,-4.53632 c 6.21658,-21.98407 16.45485,-57.17769 30.27334,-81.03177 6.0529,-10.44842 12.68956,-19.27912 19.00111,-28.07359 15.31262,9.65192 30.96602,18.07924 37.43406,24.84042 13.23001,13.82943 15.41229,39.10164 7.48527,54.49726 -5.91715,-5.92684 -12.17032,-12.55281 -20.00876,-18.08589 -10.22199,-7.21545 -23.02638,-10.32923 -35.10134,-6.6732 a 10.428674,10.428674 0 0 0 -0.21371,0.0645 c -8.92523,2.90442 -15.73179,10.33946 -17.31804,18.85725 -1.58565,8.51779 1.48504,17.26049 7.54434,24.06515 a 10.428674,10.428674 0 0 0 0.48383,0.50499 c 11.17426,10.96476 24.04008,17.88906 37.88428,18.12289 9.5261,0.14978 18.84398,-3.11844 27.65262,-8.88439 3.25095,2.01576 6.73896,3.77517 10.67805,4.9091 7.17051,2.06499 15.5856,1.81678 23.6925,-1.52144 20.86499,-8.59164 30.98211,-25.03235 30.98211,-25.03235 a 10.427631,10.427631 0 0 0 -3.41781,-14.34681 10.427631,10.427631 0 0 0 -14.34706,3.4178 c 0,0 -6.5675,10.66857 -21.15658,16.67589 -4.18455,1.72262 -6.86628,1.66055 -9.98406,0.76394 -0.19273,-0.0645 -0.42791,-0.2182 -0.62698,-0.2846 15.23598,-24.37966 11.96067,-59.38089 -9.16469,-81.46363 -10.9671,-11.46445 -27.00042,-19.28032 -41.12515,-27.97766 5.18537,-9.85529 8.6214,-20.85405 7.47803,-33.53262 -0.57349,-6.37022 -2.77499,-12.64373 -6.5994,-18.32575 -3.8244,-5.68202 -9.9181,-11.36879 -18.68758,-11.99188 -9.30761,-0.66123 -16.78719,3.92002 -22.34508,9.56315 -5.5579,5.64327 -9.84366,12.92314 -9.67783,21.88391 0.21369,11.07391 4.99701,20.72257 11.44942,28.33932 2.98856,3.52781 6.39334,6.64648 9.94361,9.58921 -6.10549,8.44914 -13.07617,17.71055 -19.99033,29.64595 -11.57591,19.98245 -19.26221,43.00563 -25.4347,63.39637 -4.53326,-8.96803 -9.64248,-20.22761 -14.48332,-32.63211 -1.20264,-3.08183 -2.27299,-6.36893 -3.42145,-9.55951 8.86551,-22.82036 15.86745,-47.05686 15.86745,-68.11716 0,-7.82067 0.14979,-18.76745 -2.22207,-29.06647 -1.18765,-5.1496 -2.96739,-10.32383 -6.73591,-14.92995 -3.76878,-4.60611 -10.30462,-8.14226 -17.11138,-8.14226 -6.80697,0 -13.3464,3.53615 -17.11523,8.14226 -3.76853,4.60612 -5.54396,9.78035 -6.73227,14.92995 -2.37676,10.29902 -2.22207,21.2458 -2.22207,29.06647 0,20.72841 6.07922,44.86864 13.88915,67.64468 -1.3032,3.21519 -2.5231,6.52449 -3.88646,9.62964 -5.72053,13.03023 -11.78152,24.98896 -16.96753,34.18232 -2.99376,5.30734 -5.66835,9.39623 -7.75475,12.42758 -1.60278,-0.99717 -3.17321,-2.63681 -5.16738,-5.70644 -3.61061,-5.5577 -7.1117,-14.69199 -10.50814,-24.92511 -3.61489,-10.89075 -6.94452,-23.13043 -12.04007,-34.35198 3.84563,-3.40198 7.43335,-7.29269 10.05067,-12.52708 10.85626,-21.71295 7.14974,-48.73155 -5.92773,-67.89185 -13.20115,-19.34164 -36.55453,-30.62049 -60.74998,-30.62049 -11.29639,0 -20.43718,1.34812 -28.12531,4.55088 -7.68795,3.20341 -13.75688,8.62141 -17.4251,15.04081 -7.33613,12.83845 -6.58827,27.33275 -6.58827,42.97398 0,26.39801 1.04855,48.74033 -4.84254,70.23953 -2.20324,8.03931 -7.19877,19.4744 -12.19884,29.08483 -1.30104,2.50173 -2.454634,4.35661 -3.702004,6.55147 -0.89447,-1.58136 -1.65412,-2.7059 -2.56524,-4.48089 -4.69639,-9.15786 -10.11588,-21.10908 -15.20328,-34.14526 -1.20258,-3.08169 -2.2727,-6.36918 -3.42146,-9.55951 8.86576,-22.82011 15.86385,-47.05686 15.86385,-68.11717 0,-8.12599 0.17127,-19.06013 -2.22571,-29.31362 -1.19403,-5.12694 -2.9892,-10.27765 -6.78768,-14.83773 -3.79849,-4.56028 -10.31681,-7.98732 -17.05596,-7.98732 z M 379.34845,171.7847 c -0.10688,-0.005 1.23469,0.40643 2.86788,2.83471 1.63488,2.42795 2.9203,6.27112 3.12616,8.55564 0.64197,7.10981 -0.83244,13.02616 -3.79788,19.24099 -1.90881,-1.70758 -3.92241,-3.41653 -5.3741,-5.13034 -4.30954,-5.08715 -6.40871,-9.71509 -6.51103,-15.24008 -0.0149,-0.86875 1.21976,-4.36405 3.68359,-6.86533 2.4637,-2.50109 5.50658,-3.43109 6.00538,-3.39559 z m -312.090964,0.025 c 1.08065,0 0.4324,-0.24615 1.03351,0.47484 0.60137,0.7211 1.73764,2.94981 2.49879,6.21913 1.52144,6.53884 1.68407,16.45953 1.68407,24.58578 0,9.33586 -2.23381,20.98321 -5.57333,33.2484 -2.90377,-12.19603 -4.85367,-23.82118 -4.85367,-33.2484 0,-8.12625 0.14979,-18.04694 1.68197,-24.58578 0.76179,-3.26932 1.89807,-5.49803 2.49893,-6.21913 0.60132,-0.72119 -0.0449,-0.47484 1.02933,-0.47484 z m 229.409334,0 c 1.01429,0 0.34002,-0.28061 0.9715,0.48982 0.63127,0.77034 1.78677,3.09192 2.55416,6.41497 1.53427,6.64584 1.6905,16.55435 1.6905,24.37516 0,9.3339 -2.23874,20.97837 -5.57721,33.24092 -2.90248,-12.19305 -4.85343,-23.81559 -4.85343,-33.24092 0,-7.82081 0.1498,-17.72932 1.69051,-24.37516 0.76609,-3.32305 1.92373,-5.64443 2.55416,-6.41497 0.63127,-0.77032 -0.0449,-0.48982 0.9715,-0.48982 z m -115.50938,76.61442 c 6.07766,0.52641 12.50741,2.55225 15.40608,4.72445 0.82811,0.62054 1.56639,1.90874 2.36603,2.74609 -0.29759,0.14979 -0.47284,0.2846 -0.77458,0.43639 -5.04435,2.52206 -15.44334,3.8946 -22.77353,2.52824 -3.66497,-0.68259 -6.47422,-2.00072 -7.65499,-2.95644 -1.18121,-0.95654 -1.05068,-0.7211 -1.02712,-1.78253 a 10.428674,10.428674 0 0 0 0.004,-0.43889 c -0.0449,-1.94731 0.0853,-1.87242 1.20691,-2.76067 1.11492,-0.88802 3.82291,-2.05432 7.42985,-2.46944 1.80396,-0.2137 3.79106,-0.19274 5.8171,-0.025 z m 205.85354,57.87805 c 4.10661,-0.12828 8.74378,1.2711 13.13245,4.3703 4.59238,3.2415 10.08396,8.88478 16.06683,14.78231 -3.65449,1.58135 -7.11705,2.32178 -10.40494,2.26636 -7.06116,-0.12828 -14.74185,-3.59462 -23.26419,-11.84084 -2.38979,-2.784 -2.70006,-5.07817 -2.49509,-6.17869 0.2137,-1.10847 0.38097,-1.86386 3.1741,-2.79772 1.1919,-0.35051 2.46063,-0.56277 3.79084,-0.60127 z" />
</svg>